<?xml version="1.0" encoding="utf-8"?>
<!-- Generator: Adobe Illustrator 23.0.1, SVG Export Plug-In . SVG Version: 6.00 Build 0)  -->
<svg version="1.1" id="圖層_1" xmlns="http://www.w3.org/2000/svg" xmlns:xlink="http://www.w3.org/1999/xlink" x="0px" y="0px"
	 viewBox="0 0 512 512" style="enable-background:new 0 0 512 512;" xml:space="preserve">
<style type="text/css">
	.st0{fill:#4B4B4B;}
</style>
<path class="st0" d="M305,256c0,27.06-21.94,49-49,49s-49-21.94-49-49s21.94-49,49-49S305,228.94,305,256z"/>
<path class="st0" d="M370.59,169.3c-2.36-6.38-6.11-12.16-11-16.9c-4.74-4.88-10.52-8.64-16.9-11c-5.18-2.01-12.96-4.41-27.29-5.06
	c-15.5-0.71-20.15-0.86-59.4-0.86c-39.25,0-43.9,0.15-59.4,0.86c-14.33,0.66-22.12,3.05-27.29,5.06c-6.39,2.36-12.16,6.11-16.9,11
	c-4.88,4.74-8.64,10.52-11,16.9c-2.01,5.18-4.41,12.96-5.06,27.3c-0.71,15.5-0.86,20.15-0.86,59.4c0,39.25,0.15,43.9,0.86,59.4
	c0.65,14.33,3.05,22.11,5.06,27.29c2.36,6.39,6.11,12.16,11,16.9c4.74,4.88,10.52,8.64,16.9,11c5.18,2.02,12.96,4.41,27.3,5.06
	c15.5,0.71,20.14,0.86,59.4,0.86c39.26,0,43.91-0.15,59.4-0.86c14.33-0.65,22.12-3.05,27.3-5.06c12.82-4.95,22.95-15.08,27.9-27.9
	c2.01-5.18,4.41-12.96,5.06-27.29c0.71-15.5,0.86-20.15,0.86-59.4c0-39.25-0.15-43.9-0.86-59.4
	C375,182.27,372.61,174.48,370.59,169.3z M256,331.48c-41.69,0-75.49-33.79-75.49-75.48s33.8-75.48,75.49-75.48
	c41.69,0,75.48,33.79,75.48,75.48S297.69,331.48,256,331.48z M334.47,195.17c-9.74,0-17.64-7.9-17.64-17.64s7.9-17.64,17.64-17.64
	s17.64,7.9,17.64,17.64C352.11,187.27,344.21,195.17,334.47,195.17z"/>
<path class="st0" d="M256,0C114.64,0,0,114.64,0,256s114.64,256,256,256s256-114.64,256-256S397.36,0,256,0z M402.11,316.61
	c-0.71,15.65-3.2,26.33-6.83,35.68c-7.64,19.75-23.25,35.36-42.99,42.99c-9.35,3.63-20.04,6.12-35.68,6.83
	C300.93,402.83,295.93,403,256,403c-39.93,0-44.93-0.17-60.61-0.89c-15.64-0.71-26.33-3.2-35.68-6.83
	c-9.81-3.69-18.7-9.48-26.04-16.96c-7.48-7.34-13.26-16.23-16.95-26.04c-3.63-9.35-6.12-20.04-6.83-35.68
	C109.17,300.93,109,295.92,109,256s0.17-44.93,0.89-60.61c0.71-15.65,3.2-26.33,6.83-35.68c3.69-9.81,9.48-18.7,16.96-26.04
	c7.34-7.48,16.23-13.27,26.04-16.96c9.35-3.63,20.04-6.12,35.68-6.83c15.68-0.71,20.68-0.89,60.61-0.89s44.93,0.17,60.61,0.89
	c15.65,0.71,26.33,3.2,35.68,6.82c9.81,3.69,18.7,9.48,26.04,16.96c7.48,7.34,13.27,16.23,16.95,26.04
	c3.64,9.35,6.12,20.04,6.84,35.68c0.71,15.68,0.88,20.68,0.88,60.61S402.83,300.93,402.11,316.61z"/>
</svg>
